<?xml version="1.0" encoding="UTF-8"?>
<svg width="100px" height="46px" viewBox="0 0 100 46" version="1.1" xmlns="http://www.w3.org/2000/svg" xmlns:xlink="http://www.w3.org/1999/xlink">
    <!-- Generator: Sketch 53.2 (72643) - https://sketchapp.com -->
    <title>logo</title>
    <desc>Created with Sketch.</desc>
    <g id="Page-1" stroke="none" stroke-width="1" fill="none" fill-rule="evenodd">
        <g id="Desktop-HD" transform="translate(-15.000000, -22.000000)" fill-rule="nonzero">
            <g id="Header">
                <g id="logo" transform="translate(15.000000, 22.000000)">
                    <path d="M10.8445298,15.7965451 L21.1132438,15.7965451 C21.1708253,15.7965451 21.2284069,15.7389635 21.2284069,15.681382 L21.2284069,12.3608445 C21.2284069,12.303263 21.1708253,12.2456814 21.1132438,12.2456814 L10.8445298,12.2456814 C10.7869482,12.2456814 10.7293666,12.303263 10.7293666,12.3608445 L10.7293666,15.681382 C10.7293666,15.7581574 10.7869482,15.7965451 10.8445298,15.7965451 Z M17.7927063,9.71209213 L21.1132438,9.71209213 C21.1708253,9.71209213 21.2284069,9.65451056 21.2284069,9.59692898 L21.2284069,6.27639155 C21.2284069,6.21880998 21.1708253,6.16122841 21.1132438,6.16122841 L17.7927063,6.16122841 C17.7351248,6.16122841 17.6775432,6.21880998 17.6775432,6.27639155 L17.6775432,9.59692898 C17.6775432,9.65451056 17.7351248,9.71209213 17.7927063,9.71209213 L17.7927063,9.71209213 Z M3.58925144,24.4337812 L0.268714012,24.4337812 C0.211132438,24.4337812 0.153550864,24.4913628 0.153550864,24.5489443 L0.153550864,27.8694818 C0.153550864,27.9270633 0.211132438,27.9846449 0.268714012,27.9846449 L3.58925144,27.9846449 C3.64683301,27.9846449 3.70441459,27.9270633 3.70441459,27.8694818 L3.70441459,24.5489443 C3.70441459,24.4913628 3.64683301,24.4337812 3.58925144,24.4337812 L3.58925144,24.4337812 Z M15.7773512,24.4337812 L12.4568138,24.4337812 C12.3992322,24.4337812 12.3416507,24.4913628 12.3416507,24.5489443 L12.3416507,34.8176583 C12.3416507,34.8752399 12.3992322,34.9328215 12.4568138,34.9328215 L15.7773512,34.9328215 C15.8349328,34.9328215 15.8925144,34.8752399 15.8925144,34.8176583 L15.8925144,24.5489443 C15.8925144,24.4913628 15.8349328,24.4337812 15.7773512,24.4337812 L15.7773512,24.4337812 Z M36.084453,21.1132438 L39.4049904,21.1132438 C39.462572,21.1132438 39.5201536,21.0556622 39.5201536,20.9980806 L39.5201536,17.6775432 C39.5201536,17.6199616 39.462572,17.56238 39.4049904,17.56238 L36.084453,17.56238 C36.0268714,17.56238 35.9692898,17.6199616 35.9692898,17.6775432 L35.9692898,20.9980806 C35.9692898,21.074856 36.0076775,21.1132438 36.084453,21.1132438 Z M29.9808061,21.1132438 L33.3013436,21.1132438 C33.3589251,21.1132438 33.4165067,21.0556622 33.4165067,20.9980806 L33.4165067,10.7293666 C33.4165067,10.671785 33.3589251,10.6142035 33.3013436,10.6142035 L29.9808061,10.6142035 C29.9232246,10.6142035 29.865643,10.671785 29.865643,10.7293666 L29.865643,20.9980806 C29.865643,21.074856 29.9232246,21.1132438 29.9808061,21.1132438 Z M17.7927063,3.6084453 L21.1132438,3.6084453 C21.1708253,3.6084453 21.2284069,3.55086372 21.2284069,3.49328215 L21.2284069,0.172744722 C21.2284069,0.115163148 21.1708253,0.0575815739 21.1132438,0.0575815739 L17.7927063,0.0575815739 C17.7351248,0.0575815739 17.6775432,0.115163148 17.6775432,0.172744722 L17.6775432,3.49328215 C17.6775432,3.57005758 17.7351248,3.6084453 17.7927063,3.6084453 Z M9.69289827,24.4337812 L6.37236084,24.4337812 C6.31477927,24.4337812 6.2571977,24.4913628 6.2571977,24.5489443 L6.2571977,27.8694818 C6.2571977,27.9270633 6.31477927,27.9846449 6.37236084,27.9846449 L9.69289827,27.9846449 C9.75047985,27.9846449 9.80806142,27.9270633 9.80806142,27.8694818 L9.80806142,24.5489443 C9.78886756,24.4913628 9.75047985,24.4337812 9.69289827,24.4337812 Z M34.9328215,29.7696737 L24.6641075,29.7696737 C24.6065259,29.7696737 24.5489443,29.8272553 24.5489443,29.8848369 L24.5489443,33.2053743 C24.5489443,33.2629559 24.6065259,33.3205374 24.6641075,33.3205374 L34.9328215,33.3205374 C34.9904031,33.3205374 35.0479846,33.2629559 35.0479846,33.2053743 L35.0479846,29.8848369 C35.0287908,29.8080614 34.9904031,29.7696737 34.9328215,29.7696737 Z M41.9385797,23.7236084 L27.3896353,23.7236084 C27.3320537,23.7236084 27.2744722,23.78119 27.2744722,23.8387716 L27.2744722,27.0633397 C27.2744722,27.1209213 27.3320537,27.1785029 27.3896353,27.1785029 L41.9385797,27.1785029 C41.9961612,27.1785029 42.0537428,27.1209213 42.0537428,27.0633397 L42.0537428,23.8387716 C42.0537428,23.7619962 41.9961612,23.7236084 41.9385797,23.7236084 Z M27.9654511,35.8541267 L24.6449136,35.8541267 C24.5873321,35.8541267 24.5297505,35.9117083 24.5297505,35.9692898 L24.5297505,39.2898273 C24.5297505,39.3474088 24.5873321,39.4049904 24.6449136,39.4049904 L27.9654511,39.4049904 C28.0230326,39.4049904 28.0806142,39.3474088 28.0806142,39.2898273 L28.0806142,35.9692898 C28.0806142,35.9117083 28.0422265,35.8541267 27.9654511,35.8541267 Z M18.4836852,18.5028791 C18.4836852,18.4452975 18.4261036,18.3877159 18.3685221,18.3877159 L3.81957774,18.3877159 C3.76199616,18.3877159 3.70441459,18.4452975 3.70441459,18.5028791 L3.70441459,21.7274472 C3.70441459,21.7850288 3.76199616,21.8426104 3.81957774,21.8426104 L18.3685221,21.8426104 C18.4261036,21.8426104 18.4836852,21.7850288 18.4836852,21.7274472 L18.4836852,18.5028791 Z M45.4894434,17.5815739 L42.168906,17.5815739 C42.1113244,17.5815739 42.0537428,17.6391555 42.0537428,17.696737 L42.0537428,21.0172745 C42.0537428,21.074856 42.1113244,21.1324376 42.168906,21.1324376 L45.4894434,21.1324376 C45.547025,21.1324376 45.6046065,21.074856 45.6046065,21.0172745 L45.6046065,17.696737 C45.6046065,17.6199616 45.5662188,17.5815739 45.4894434,17.5815739 Z M21.8234165,27.1785029 L18.5988484,27.1785029 C18.5412668,27.1785029 18.4836852,27.2360845 18.4836852,27.293666 L18.4836852,41.8426104 C18.4836852,41.9001919 18.5412668,41.9577735 18.5988484,41.9577735 L21.8234165,41.9577735 C21.8809981,41.9577735 21.9385797,41.9001919 21.9385797,41.8426104 L21.9385797,27.293666 C21.9385797,27.2360845 21.8809981,27.1785029 21.8234165,27.1785029 Z M27.2744722,18.2917466 L27.2744722,3.72360845 C27.2744722,3.66602687 27.2168906,3.6084453 27.159309,3.6084453 L23.9347409,3.6084453 C23.8771593,3.6084453 23.8195777,3.66602687 23.8195777,3.72360845 L23.8195777,18.2917466 C23.8195777,18.3493282 23.8771593,18.4069098 23.9347409,18.4069098 L27.159309,18.4069098 C27.2168906,18.4069098 27.2744722,18.3493282 27.2744722,18.2917466 Z M27.9654511,41.9577735 L24.6449136,41.9577735 C24.5873321,41.9577735 24.5297505,42.0153551 24.5297505,42.0729367 L24.5297505,45.3934741 C24.5297505,45.4510557 24.5873321,45.5086372 24.6449136,45.5086372 L27.9654511,45.5086372 C28.0230326,45.5086372 28.0806142,45.4510557 28.0806142,45.3934741 L28.0806142,42.0729367 C28.0806142,41.9961612 28.0422265,41.9577735 27.9654511,41.9577735 Z" id="Shape" fill="#149DD9"></path>
                    <path d="M66.5834933,17.56238 L61.4779271,17.56238 C55.9692898,17.56238 52.8023033,21.4779271 52.8023033,26.9289827 L52.7639155,45.2207294 C52.7639155,45.3742802 52.8982726,45.5086372 53.0518234,45.5086372 L59.4241843,45.5086372 C59.5777351,45.5086372 59.7120921,45.3742802 59.7120921,45.2207294 L59.5009597,27.1209213 C59.5009597,24.8752399 60.7485605,23.646833 63.0326296,23.646833 L66.5834933,23.646833 C66.7370441,23.646833 66.8714012,23.512476 66.8714012,23.3589251 L66.8714012,17.8502879 C66.8714012,17.696737 66.7370441,17.56238 66.5834933,17.56238 L66.5834933,17.56238 Z M79.1746641,17.7351248 L72.8023033,17.7351248 C72.6487524,17.7351248 72.5143954,17.8694818 72.5143954,18.0230326 L72.5143954,45.2207294 C72.5143954,45.3742802 72.6487524,45.5086372 72.8023033,45.5086372 L79.1746641,45.5086372 C79.328215,45.5086372 79.462572,45.3742802 79.462572,45.2207294 L79.462572,18.0038388 C79.462572,17.8502879 79.3474088,17.7351248 79.1746641,17.7351248 Z M79.3474088,6.0268714 L72.6295585,6.0268714 C72.571977,6.0268714 72.5143954,6.08445298 72.5143954,6.14203455 L72.5143954,12.8598848 C72.5143954,12.9174664 72.571977,12.975048 72.6295585,12.975048 L79.3474088,12.975048 C79.4049904,12.975048 79.462572,12.9174664 79.462572,12.8598848 L79.462572,6.14203455 C79.462572,6.06525912 79.4241843,6.0268714 79.3474088,6.0268714 Z M99.9616123,18.3877159 C99.9616123,18.2341651 99.8272553,18.0998081 99.6737044,18.0998081 L92.571977,18.0998081 L92.571977,15.3166987 C92.571977,13.0710173 93.8195777,11.8426104 96.1036468,11.8426104 L99.6161228,11.8426104 C99.7696737,11.8426104 99.9040307,11.7082534 99.9040307,11.5547025 L99.9040307,6.04606526 C99.9040307,5.8925144 99.7696737,5.75815739 99.6161228,5.75815739 L94.5489443,5.75815739 C89.0403071,5.75815739 85.8733205,9.67370441 85.8733205,15.1247601 L85.8349328,45.2207294 C85.8349328,45.3742802 85.9692898,45.5086372 86.1228407,45.5086372 L92.4952015,45.5086372 C92.6487524,45.5086372 92.7831094,45.3742802 92.7831094,45.2207294 L92.7831094,24.0690979 L99.6737044,24.0690979 C99.8272553,24.0690979 99.9616123,23.9347409 99.9616123,23.78119 L99.9616123,18.3877159 L99.9616123,18.3877159 Z" id="Shape" fill="#333132"></path>
                </g>
            </g>
        </g>
    </g>
</svg>