<?xml version="1.0" encoding="UTF-8"?>
<svg width="42px" height="42px" viewBox="0 0 42 42" version="1.1" xmlns="http://www.w3.org/2000/svg" xmlns:xlink="http://www.w3.org/1999/xlink">
    <!-- Generator: Sketch 53.2 (72643) - https://sketchapp.com -->
    <title>Artboard</title>
    <desc>Created with Sketch.</desc>
    <g id="Artboard" stroke="none" stroke-width="1" fill="none" fill-rule="evenodd">
        <path d="M9.83551988,14.4795804 L19.2825632,14.4795804 C19.3355373,14.4795804 19.3885114,14.4266064 19.3885114,14.3736323 L19.3885114,11.318794 C19.3885114,11.2658199 19.3355373,11.2128458 19.2825632,11.2128458 L9.83551988,11.2128458 C9.7825458,11.2128458 9.72957173,11.2658199 9.72957173,11.318794 L9.72957173,14.3736323 C9.72957173,14.4442644 9.7825458,14.4795804 9.83551988,14.4795804 Z M16.2277249,8.88198653 L19.2825632,8.88198653 C19.3355373,8.88198653 19.3885114,8.82901246 19.3885114,8.77603838 L19.3885114,5.72120007 C19.3885114,5.668226 19.3355373,5.61525192 19.2825632,5.61525192 L16.2277249,5.61525192 C16.1747508,5.61525192 16.1217767,5.668226 16.1217767,5.72120007 L16.1217767,8.77603838 C16.1217767,8.82901246 16.1747508,8.88198653 16.2277249,8.88198653 L16.2277249,8.88198653 Z M3.16078646,22.4256916 L0.105948149,22.4256916 C0.0529740747,22.4256916 0,22.4786657 0,22.5316398 L0,25.5864781 C0,25.6394522 0.0529740747,25.6924263 0.105948149,25.6924263 L3.16078646,25.6924263 C3.21376053,25.6924263 3.26673461,25.6394522 3.26673461,25.5864781 L3.26673461,22.5316398 C3.26673461,22.4786657 3.21376053,22.4256916 3.16078646,22.4256916 L3.16078646,22.4256916 Z M14.3736323,22.4256916 L11.318794,22.4256916 C11.2658199,22.4256916 11.2128458,22.4786657 11.2128458,22.5316398 L11.2128458,31.9786831 C11.2128458,32.0316572 11.2658199,32.0846313 11.318794,32.0846313 L14.3736323,32.0846313 C14.4266064,32.0846313 14.4795804,32.0316572 14.4795804,31.9786831 L14.4795804,22.5316398 C14.4795804,22.4786657 14.4266064,22.4256916 14.3736323,22.4256916 L14.3736323,22.4256916 Z M33.0558226,19.3708533 L36.110661,19.3708533 C36.163635,19.3708533 36.2166091,19.3178793 36.2166091,19.2649052 L36.2166091,16.2100669 C36.2166091,16.1570928 36.163635,16.1041187 36.110661,16.1041187 L33.0558226,16.1041187 C33.0028486,16.1041187 32.9498745,16.1570928 32.9498745,16.2100669 L32.9498745,19.2649052 C32.9498745,19.3355373 32.9851905,19.3708533 33.0558226,19.3708533 Z M27.4405707,19.3708533 L30.495409,19.3708533 C30.5483831,19.3708533 30.6013572,19.3178793 30.6013572,19.2649052 L30.6013572,9.81786185 C30.6013572,9.76488778 30.5483831,9.7119137 30.495409,9.7119137 L27.4405707,9.7119137 C27.3875966,9.7119137 27.3346226,9.76488778 27.3346226,9.81786185 L27.3346226,19.2649052 C27.3346226,19.3355373 27.3875966,19.3708533 27.4405707,19.3708533 Z M16.2277249,3.26673461 L19.2825632,3.26673461 C19.3355373,3.26673461 19.3885114,3.21376053 19.3885114,3.16078646 L19.3885114,0.105948149 C19.3885114,0.0529740747 19.3355373,0 19.2825632,0 L16.2277249,0 C16.1747508,0 16.1217767,0.0529740747 16.1217767,0.105948149 L16.1217767,3.16078646 C16.1217767,3.23141856 16.1747508,3.26673461 16.2277249,3.26673461 Z M8.77603838,22.4256916 L5.72120007,22.4256916 C5.668226,22.4256916 5.61525192,22.4786657 5.61525192,22.5316398 L5.61525192,25.5864781 C5.61525192,25.6394522 5.668226,25.6924263 5.72120007,25.6924263 L8.77603838,25.6924263 C8.82901246,25.6924263 8.88198653,25.6394522 8.88198653,25.5864781 L8.88198653,22.5316398 C8.86432851,22.4786657 8.82901246,22.4256916 8.77603838,22.4256916 Z M31.9963411,27.3346226 L22.5492978,27.3346226 C22.4963237,27.3346226 22.4433497,27.3875966 22.4433497,27.4405707 L22.4433497,30.495409 C22.4433497,30.5483831 22.4963237,30.6013572 22.5492978,30.6013572 L31.9963411,30.6013572 C32.0493152,30.6013572 32.1022893,30.5483831 32.1022893,30.495409 L32.1022893,27.4405707 C32.0846313,27.3699386 32.0493152,27.3346226 31.9963411,27.3346226 Z M38.4415202,21.7723447 L25.0567374,21.7723447 C25.0037633,21.7723447 24.9507892,21.8253188 24.9507892,21.8782929 L24.9507892,24.8448411 C24.9507892,24.8978151 25.0037633,24.9507892 25.0567374,24.9507892 L38.4415202,24.9507892 C38.4944943,24.9507892 38.5474684,24.8978151 38.5474684,24.8448411 L38.5474684,21.8782929 C38.5474684,21.8076608 38.4944943,21.7723447 38.4415202,21.7723447 Z M25.5864781,32.9322165 L22.5316398,32.9322165 C22.4786657,32.9322165 22.4256916,32.9851905 22.4256916,33.0381646 L22.4256916,36.0930029 C22.4256916,36.145977 22.4786657,36.1989511 22.5316398,36.1989511 L25.5864781,36.1989511 C25.6394522,36.1989511 25.6924263,36.145977 25.6924263,36.0930029 L25.6924263,33.0381646 C25.6924263,32.9851905 25.6571102,32.9322165 25.5864781,32.9322165 Z M16.8634138,16.9693619 C16.8634138,16.9163879 16.8104397,16.8634138 16.7574656,16.8634138 L3.37268276,16.8634138 C3.31970868,16.8634138 3.26673461,16.9163879 3.26673461,16.9693619 L3.26673461,19.9359101 C3.26673461,19.9888842 3.31970868,20.0418583 3.37268276,20.0418583 L16.7574656,20.0418583 C16.8104397,20.0418583 16.8634138,19.9888842 16.8634138,19.9359101 L16.8634138,16.9693619 Z M41.7082549,16.1217767 L38.6534165,16.1217767 C38.6004425,16.1217767 38.5474684,16.1747508 38.5474684,16.2277249 L38.5474684,19.2825632 C38.5474684,19.3355373 38.6004425,19.3885114 38.6534165,19.3885114 L41.7082549,19.3885114 C41.7612289,19.3885114 41.814203,19.3355373 41.814203,19.2825632 L41.814203,16.2277249 C41.814203,16.1570928 41.778887,16.1217767 41.7082549,16.1217767 Z M19.9359101,24.9507892 L16.9693619,24.9507892 C16.9163879,24.9507892 16.8634138,25.0037633 16.8634138,25.0567374 L16.8634138,38.4415202 C16.8634138,38.4944943 16.9163879,38.5474684 16.9693619,38.5474684 L19.9359101,38.5474684 C19.9888842,38.5474684 20.0418583,38.4944943 20.0418583,38.4415202 L20.0418583,25.0567374 C20.0418583,25.0037633 19.9888842,24.9507892 19.9359101,24.9507892 Z M24.9507892,16.7751237 L24.9507892,3.37268276 C24.9507892,3.31970868 24.8978151,3.26673461 24.8448411,3.26673461 L21.8782929,3.26673461 C21.8253188,3.26673461 21.7723447,3.31970868 21.7723447,3.37268276 L21.7723447,16.7751237 C21.7723447,16.8280977 21.8253188,16.8810718 21.8782929,16.8810718 L24.8448411,16.8810718 C24.8978151,16.8810718 24.9507892,16.8280977 24.9507892,16.7751237 Z M25.5864781,38.5474684 L22.5316398,38.5474684 C22.4786657,38.5474684 22.4256916,38.6004425 22.4256916,38.6534165 L22.4256916,41.7082549 C22.4256916,41.7612289 22.4786657,41.814203 22.5316398,41.814203 L25.5864781,41.814203 C25.6394522,41.814203 25.6924263,41.7612289 25.6924263,41.7082549 L25.6924263,38.6534165 C25.6924263,38.5827844 25.6571102,38.5474684 25.5864781,38.5474684 Z" id="Shape" fill="#FFFFFF" fill-rule="nonzero"></path>
    </g>
</svg>